<?xml version="1.0" encoding="UTF-8" standalone="no"?>
<!DOCTYPE svg PUBLIC "-//W3C//DTD SVG 1.1//EN"
 "http://www.w3.org/Graphics/SVG/1.1/DTD/svg11.dtd">
<!-- Generated by graphviz version 2.40.1 (20161225.0304)
 -->
<!-- Title: dependencies Pages: 1 -->
<svg width="770pt" height="211pt"
 viewBox="0.00 0.00 770.00 211.00" xmlns="http://www.w3.org/2000/svg" xmlns:xlink="http://www.w3.org/1999/xlink">
<g id="graph0" class="graph" transform="scale(1 1) rotate(0) translate(4 207)">
<title>dependencies</title>
<polygon fill="#ffffff" stroke="transparent" points="-4,4 -4,-207 766,-207 766,4 -4,4"/>
<text text-anchor="start" x="360.0091" y="-42.4" font-family="sans-serif" font-weight="bold" font-size="14.00" fill="#000000">Legend</text>
<polygon fill="#ffffb3" stroke="transparent" points="147,-10 147,-30 167,-30 167,-10 147,-10"/>
<text text-anchor="start" x="170.629" y="-15.4" font-family="sans-serif" font-size="14.00" fill="#000000"> &#160;Declarations</text>
<polygon fill="#8dd3c7" stroke="transparent" points="260,-10 260,-30 280,-30 280,-10 260,-10"/>
<text text-anchor="start" x="283.7251" y="-15.4" font-family="sans-serif" font-size="14.00" fill="#000000"> &#160;Module</text>
<polygon fill="#80b1d3" stroke="transparent" points="346,-10 346,-30 366,-30 366,-10 346,-10"/>
<text text-anchor="start" x="369.7812" y="-15.4" font-family="sans-serif" font-size="14.00" fill="#000000"> &#160;Bootstrap</text>
<polygon fill="#fdb462" stroke="transparent" points="443,-10 443,-30 463,-30 463,-10 443,-10"/>
<text text-anchor="start" x="466.6732" y="-15.4" font-family="sans-serif" font-size="14.00" fill="#000000"> &#160;Providers</text>
<polygon fill="#fb8072" stroke="transparent" points="539,-10 539,-30 559,-30 559,-10 539,-10"/>
<text text-anchor="start" x="562.7258" y="-15.4" font-family="sans-serif" font-size="14.00" fill="#000000"> &#160;Exports</text>
<g id="clust1" class="cluster">
<title>cluster_MaterialModule</title>
<polygon fill="none" stroke="#000000" stroke-dasharray="1,5" points="8,-70 8,-195 754,-195 754,-70 8,-70"/>
</g>
<g id="clust2" class="cluster">
<title>cluster_MaterialModule_declarations</title>
<polygon fill="none" stroke="#000000" points="16,-78 16,-130 746,-130 746,-78 16,-78"/>
</g>
<!-- AnalisisComponent -->
<g id="node1" class="node">
<title>AnalisisComponent</title>
<polygon fill="#ffffb3" stroke="#000000" points="737.7148,-122 610.2852,-122 610.2852,-86 737.7148,-86 737.7148,-122"/>
<text text-anchor="middle" x="674" y="-99.8" font-family="Times,serif" font-size="14.00" fill="#000000">AnalisisComponent</text>
</g>
<!-- MaterialModule -->
<g id="node6" class="node">
<title>MaterialModule</title>
<polygon fill="#8dd3c7" stroke="#000000" points="437.4706,-187 434.4706,-191 413.4706,-191 410.4706,-187 330.5294,-187 330.5294,-151 437.4706,-151 437.4706,-187"/>
<text text-anchor="middle" x="384" y="-164.8" font-family="Times,serif" font-size="14.00" fill="#000000">MaterialModule</text>
</g>
<!-- AnalisisComponent&#45;&gt;MaterialModule -->
<g id="edge1" class="edge">
<title>AnalisisComponent&#45;&gt;MaterialModule</title>
<path fill="none" stroke="#000000" d="M674,-122.2843C674,-143.3211 674,-175 674,-175 674,-175 447.5284,-175 447.5284,-175"/>
<polygon fill="#000000" stroke="#000000" points="447.5285,-171.5001 437.5284,-175 447.5284,-178.5001 447.5285,-171.5001"/>
</g>
<!-- HomeComponent -->
<g id="node2" class="node">
<title>HomeComponent</title>
<polygon fill="#ffffb3" stroke="#000000" points="592.5451,-122 477.4549,-122 477.4549,-86 592.5451,-86 592.5451,-122"/>
<text text-anchor="middle" x="535" y="-99.8" font-family="Times,serif" font-size="14.00" fill="#000000">HomeComponent</text>
</g>
<!-- HomeComponent&#45;&gt;MaterialModule -->
<g id="edge2" class="edge">
<title>HomeComponent&#45;&gt;MaterialModule</title>
<path fill="none" stroke="#000000" d="M535,-122.0225C535,-139.3734 535,-163 535,-163 535,-163 447.6621,-163 447.6621,-163"/>
<polygon fill="#000000" stroke="#000000" points="447.6622,-159.5001 437.6621,-163 447.6621,-166.5001 447.6622,-159.5001"/>
</g>
<!-- PanelAdminComponent -->
<g id="node3" class="node">
<title>PanelAdminComponent</title>
<polygon fill="#ffffb3" stroke="#000000" points="459.8229,-122 308.1771,-122 308.1771,-86 459.8229,-86 459.8229,-122"/>
<text text-anchor="middle" x="384" y="-99.8" font-family="Times,serif" font-size="14.00" fill="#000000">PanelAdminComponent</text>
</g>
<!-- PanelAdminComponent&#45;&gt;MaterialModule -->
<g id="edge3" class="edge">
<title>PanelAdminComponent&#45;&gt;MaterialModule</title>
<path fill="none" stroke="#000000" d="M384,-122.1061C384,-122.1061 384,-140.991 384,-140.991"/>
<polygon fill="#000000" stroke="#000000" points="380.5001,-140.9909 384,-150.991 387.5001,-140.991 380.5001,-140.9909"/>
</g>
<!-- SearcherComponent -->
<g id="node4" class="node">
<title>SearcherComponent</title>
<polygon fill="#ffffb3" stroke="#000000" points="290.2949,-122 159.7051,-122 159.7051,-86 290.2949,-86 290.2949,-122"/>
<text text-anchor="middle" x="225" y="-99.8" font-family="Times,serif" font-size="14.00" fill="#000000">SearcherComponent</text>
</g>
<!-- SearcherComponent&#45;&gt;MaterialModule -->
<g id="edge4" class="edge">
<title>SearcherComponent&#45;&gt;MaterialModule</title>
<path fill="none" stroke="#000000" d="M225,-122.0225C225,-139.3734 225,-163 225,-163 225,-163 320.1699,-163 320.1699,-163"/>
<polygon fill="#000000" stroke="#000000" points="320.1699,-166.5001 330.1699,-163 320.1698,-159.5001 320.1699,-166.5001"/>
</g>
<!-- SociosComponent -->
<g id="node5" class="node">
<title>SociosComponent</title>
<polygon fill="#ffffb3" stroke="#000000" points="142.1653,-122 23.8347,-122 23.8347,-86 142.1653,-86 142.1653,-122"/>
<text text-anchor="middle" x="83" y="-99.8" font-family="Times,serif" font-size="14.00" fill="#000000">SociosComponent</text>
</g>
<!-- SociosComponent&#45;&gt;MaterialModule -->
<g id="edge5" class="edge">
<title>SociosComponent&#45;&gt;MaterialModule</title>
<path fill="none" stroke="#000000" d="M83,-122.2843C83,-143.3211 83,-175 83,-175 83,-175 320.1872,-175 320.1872,-175"/>
<polygon fill="#000000" stroke="#000000" points="320.1873,-178.5001 330.1872,-175 320.1872,-171.5001 320.1873,-178.5001"/>
</g>
</g>
</svg>
