<?xml version="1.0" encoding="UTF-8" standalone="no"?>
<!DOCTYPE svg PUBLIC "-//W3C//DTD SVG 1.1//EN"
 "http://www.w3.org/Graphics/SVG/1.1/DTD/svg11.dtd">
<!-- Generated by graphviz version 2.40.1 (20161225.0304)
 -->
<!-- Title: dependencies Pages: 1 -->
<svg width="637pt" height="211pt"
 viewBox="0.00 0.00 637.00 211.00" xmlns="http://www.w3.org/2000/svg" xmlns:xlink="http://www.w3.org/1999/xlink">
<g id="graph0" class="graph" transform="scale(1 1) rotate(0) translate(4 207)">
<title>dependencies</title>
<polygon fill="#ffffff" stroke="transparent" points="-4,4 -4,-207 633,-207 633,4 -4,4"/>
<text text-anchor="start" x="293.5091" y="-42.4" font-family="sans-serif" font-weight="bold" font-size="14.00" fill="#000000">Legend</text>
<polygon fill="#ffffb3" stroke="transparent" points="80.5,-10 80.5,-30 100.5,-30 100.5,-10 80.5,-10"/>
<text text-anchor="start" x="104.129" y="-15.4" font-family="sans-serif" font-size="14.00" fill="#000000"> &#160;Declarations</text>
<polygon fill="#8dd3c7" stroke="transparent" points="193.5,-10 193.5,-30 213.5,-30 213.5,-10 193.5,-10"/>
<text text-anchor="start" x="217.2251" y="-15.4" font-family="sans-serif" font-size="14.00" fill="#000000"> &#160;Module</text>
<polygon fill="#80b1d3" stroke="transparent" points="279.5,-10 279.5,-30 299.5,-30 299.5,-10 279.5,-10"/>
<text text-anchor="start" x="303.2812" y="-15.4" font-family="sans-serif" font-size="14.00" fill="#000000"> &#160;Bootstrap</text>
<polygon fill="#fdb462" stroke="transparent" points="376.5,-10 376.5,-30 396.5,-30 396.5,-10 376.5,-10"/>
<text text-anchor="start" x="400.1732" y="-15.4" font-family="sans-serif" font-size="14.00" fill="#000000"> &#160;Providers</text>
<polygon fill="#fb8072" stroke="transparent" points="472.5,-10 472.5,-30 492.5,-30 492.5,-10 472.5,-10"/>
<text text-anchor="start" x="496.2258" y="-15.4" font-family="sans-serif" font-size="14.00" fill="#000000"> &#160;Exports</text>
<g id="clust1" class="cluster">
<title>cluster_DashboardModule</title>
<polygon fill="none" stroke="#000000" stroke-dasharray="1,5" points="8,-70 8,-195 621,-195 621,-70 8,-70"/>
</g>
<g id="clust2" class="cluster">
<title>cluster_DashboardModule_declarations</title>
<polygon fill="none" stroke="#000000" points="243,-78 243,-130 613,-130 613,-78 243,-78"/>
</g>
<g id="clust6" class="cluster">
<title>cluster_DashboardModule_imports</title>
<polygon fill="none" stroke="#000000" points="16,-78 16,-130 235,-130 235,-78 16,-78"/>
</g>
<!-- DashboardComponent -->
<g id="node1" class="node">
<title>DashboardComponent</title>
<polygon fill="#ffffb3" stroke="#000000" points="604.9734,-122 463.0266,-122 463.0266,-86 604.9734,-86 604.9734,-122"/>
<text text-anchor="middle" x="534" y="-99.8" font-family="Times,serif" font-size="14.00" fill="#000000">DashboardComponent</text>
</g>
<!-- DashboardModule -->
<g id="node4" class="node">
<title>DashboardModule</title>
<polygon fill="#8dd3c7" stroke="#000000" points="341.191,-187 338.191,-191 317.191,-191 314.191,-187 220.809,-187 220.809,-151 341.191,-151 341.191,-187"/>
<text text-anchor="middle" x="281" y="-164.8" font-family="Times,serif" font-size="14.00" fill="#000000">DashboardModule</text>
</g>
<!-- DashboardComponent&#45;&gt;DashboardModule -->
<g id="edge1" class="edge">
<title>DashboardComponent&#45;&gt;DashboardModule</title>
<path fill="none" stroke="#000000" d="M534,-122.1061C534,-141.3391 534,-169 534,-169 534,-169 351.2784,-169 351.2784,-169"/>
<polygon fill="#000000" stroke="#000000" points="351.2784,-165.5001 341.2784,-169 351.2783,-172.5001 351.2784,-165.5001"/>
</g>
<!-- GraphComponent -->
<g id="node2" class="node">
<title>GraphComponent</title>
<polygon fill="#ffffb3" stroke="#000000" points="445.3146,-122 328.6854,-122 328.6854,-86 445.3146,-86 445.3146,-122"/>
<text text-anchor="middle" x="387" y="-99.8" font-family="Times,serif" font-size="14.00" fill="#000000">GraphComponent</text>
</g>
<!-- GraphComponent&#45;&gt;DashboardModule -->
<g id="edge2" class="edge">
<title>GraphComponent&#45;&gt;DashboardModule</title>
<path fill="none" stroke="#000000" d="M334.9692,-122.1061C334.9692,-122.1061 334.9692,-140.991 334.9692,-140.991"/>
<polygon fill="#000000" stroke="#000000" points="331.4692,-140.9909 334.9692,-150.991 338.4692,-140.991 331.4692,-140.9909"/>
</g>
<!-- NgCyto -->
<g id="node3" class="node">
<title>NgCyto</title>
<polygon fill="#ffffb3" stroke="#000000" points="311.3347,-122 250.6653,-122 250.6653,-86 311.3347,-86 311.3347,-122"/>
<text text-anchor="middle" x="281" y="-99.8" font-family="Times,serif" font-size="14.00" fill="#000000">NgCyto</text>
</g>
<!-- NgCyto&#45;&gt;DashboardModule -->
<g id="edge3" class="edge">
<title>NgCyto&#45;&gt;DashboardModule</title>
<path fill="none" stroke="#000000" d="M281,-122.1061C281,-122.1061 281,-140.991 281,-140.991"/>
<polygon fill="#000000" stroke="#000000" points="277.5001,-140.9909 281,-150.991 284.5001,-140.991 277.5001,-140.9909"/>
</g>
<!-- MaterialModule -->
<g id="node5" class="node">
<title>MaterialModule</title>
<polygon fill="#8dd3c7" stroke="#000000" points="227.4706,-122 224.4706,-126 203.4706,-126 200.4706,-122 120.5294,-122 120.5294,-86 227.4706,-86 227.4706,-122"/>
<text text-anchor="middle" x="174" y="-99.8" font-family="Times,serif" font-size="14.00" fill="#000000">MaterialModule</text>
</g>
<!-- MaterialModule&#45;&gt;DashboardModule -->
<g id="edge4" class="edge">
<title>MaterialModule&#45;&gt;DashboardModule</title>
<path fill="none" stroke="#000000" d="M227.51,-104C234.4256,-104 239.1592,-104 239.1592,-104 239.1592,-104 239.1592,-140.8939 239.1592,-140.8939"/>
<polygon fill="#000000" stroke="#000000" points="235.6593,-140.8938 239.1592,-150.8939 242.6593,-140.8939 235.6593,-140.8938"/>
</g>
<!-- MdModule -->
<g id="node6" class="node">
<title>MdModule</title>
<polygon fill="#8dd3c7" stroke="#000000" points="102.4944,-122 99.4944,-126 78.4944,-126 75.4944,-122 23.5056,-122 23.5056,-86 102.4944,-86 102.4944,-122"/>
<text text-anchor="middle" x="63" y="-99.8" font-family="Times,serif" font-size="14.00" fill="#000000">MdModule</text>
</g>
<!-- MdModule&#45;&gt;DashboardModule -->
<g id="edge5" class="edge">
<title>MdModule&#45;&gt;DashboardModule</title>
<path fill="none" stroke="#000000" d="M63,-122.1061C63,-141.3391 63,-169 63,-169 63,-169 210.8535,-169 210.8535,-169"/>
<polygon fill="#000000" stroke="#000000" points="210.8535,-172.5001 220.8535,-169 210.8534,-165.5001 210.8535,-172.5001"/>
</g>
</g>
</svg>
