<?xml version="1.0" encoding="UTF-8" standalone="no"?>
<!DOCTYPE svg PUBLIC "-//W3C//DTD SVG 1.1//EN"
 "http://www.w3.org/Graphics/SVG/1.1/DTD/svg11.dtd">
<!-- Generated by graphviz version 2.40.1 (20161225.0304)
 -->
<!-- Title: dependencies Pages: 1 -->
<svg width="504pt" height="211pt"
 viewBox="0.00 0.00 504.00 211.00" xmlns="http://www.w3.org/2000/svg" xmlns:xlink="http://www.w3.org/1999/xlink">
<g id="graph0" class="graph" transform="scale(1 1) rotate(0) translate(4 207)">
<title>dependencies</title>
<polygon fill="#ffffff" stroke="transparent" points="-4,4 -4,-207 500,-207 500,4 -4,4"/>
<text text-anchor="start" x="227.0091" y="-42.4" font-family="sans-serif" font-weight="bold" font-size="14.00" fill="#000000">Legend</text>
<polygon fill="#ffffb3" stroke="transparent" points="14,-10 14,-30 34,-30 34,-10 14,-10"/>
<text text-anchor="start" x="37.629" y="-15.4" font-family="sans-serif" font-size="14.00" fill="#000000"> &#160;Declarations</text>
<polygon fill="#8dd3c7" stroke="transparent" points="127,-10 127,-30 147,-30 147,-10 127,-10"/>
<text text-anchor="start" x="150.7251" y="-15.4" font-family="sans-serif" font-size="14.00" fill="#000000"> &#160;Module</text>
<polygon fill="#80b1d3" stroke="transparent" points="213,-10 213,-30 233,-30 233,-10 213,-10"/>
<text text-anchor="start" x="236.7812" y="-15.4" font-family="sans-serif" font-size="14.00" fill="#000000"> &#160;Bootstrap</text>
<polygon fill="#fdb462" stroke="transparent" points="310,-10 310,-30 330,-30 330,-10 310,-10"/>
<text text-anchor="start" x="333.6732" y="-15.4" font-family="sans-serif" font-size="14.00" fill="#000000"> &#160;Providers</text>
<polygon fill="#fb8072" stroke="transparent" points="406,-10 406,-30 426,-30 426,-10 406,-10"/>
<text text-anchor="start" x="429.7258" y="-15.4" font-family="sans-serif" font-size="14.00" fill="#000000"> &#160;Exports</text>
<g id="clust1" class="cluster">
<title>cluster_DashboardModule</title>
<polygon fill="none" stroke="#000000" stroke-dasharray="1,5" points="47.5,-70 47.5,-195 448.5,-195 448.5,-70 47.5,-70"/>
</g>
<g id="clust2" class="cluster">
<title>cluster_DashboardModule_declarations</title>
<polygon fill="none" stroke="#000000" points="282.5,-78 282.5,-130 440.5,-130 440.5,-78 282.5,-78"/>
</g>
<g id="clust4" class="cluster">
<title>cluster_DashboardModule_imports</title>
<polygon fill="none" stroke="#000000" points="55.5,-78 55.5,-130 274.5,-130 274.5,-78 55.5,-78"/>
</g>
<!-- DashboardComponent -->
<g id="node1" class="node">
<title>DashboardComponent</title>
<polygon fill="#ffffb3" stroke="#000000" points="432.4734,-122 290.5266,-122 290.5266,-86 432.4734,-86 432.4734,-122"/>
<text text-anchor="middle" x="361.5" y="-99.8" font-family="Times,serif" font-size="14.00" fill="#000000">DashboardComponent</text>
</g>
<!-- DashboardModule -->
<g id="node2" class="node">
<title>DashboardModule</title>
<polygon fill="#8dd3c7" stroke="#000000" points="273.691,-187 270.691,-191 249.691,-191 246.691,-187 153.309,-187 153.309,-151 273.691,-151 273.691,-187"/>
<text text-anchor="middle" x="213.5" y="-164.8" font-family="Times,serif" font-size="14.00" fill="#000000">DashboardModule</text>
</g>
<!-- DashboardComponent&#45;&gt;DashboardModule -->
<g id="edge1" class="edge">
<title>DashboardComponent&#45;&gt;DashboardModule</title>
<path fill="none" stroke="#000000" d="M361.5,-122.1061C361.5,-141.3391 361.5,-169 361.5,-169 361.5,-169 283.6973,-169 283.6973,-169"/>
<polygon fill="#000000" stroke="#000000" points="283.6973,-165.5001 273.6973,-169 283.6972,-172.5001 283.6973,-165.5001"/>
</g>
<!-- MaterialModule -->
<g id="node3" class="node">
<title>MaterialModule</title>
<polygon fill="#8dd3c7" stroke="#000000" points="266.9706,-122 263.9706,-126 242.9706,-126 239.9706,-122 160.0294,-122 160.0294,-86 266.9706,-86 266.9706,-122"/>
<text text-anchor="middle" x="213.5" y="-99.8" font-family="Times,serif" font-size="14.00" fill="#000000">MaterialModule</text>
</g>
<!-- MaterialModule&#45;&gt;DashboardModule -->
<g id="edge2" class="edge">
<title>MaterialModule&#45;&gt;DashboardModule</title>
<path fill="none" stroke="#000000" d="M213.5,-122.1061C213.5,-122.1061 213.5,-140.991 213.5,-140.991"/>
<polygon fill="#000000" stroke="#000000" points="210.0001,-140.9909 213.5,-150.991 217.0001,-140.991 210.0001,-140.9909"/>
</g>
<!-- MdModule -->
<g id="node4" class="node">
<title>MdModule</title>
<polygon fill="#8dd3c7" stroke="#000000" points="141.9944,-122 138.9944,-126 117.9944,-126 114.9944,-122 63.0056,-122 63.0056,-86 141.9944,-86 141.9944,-122"/>
<text text-anchor="middle" x="102.5" y="-99.8" font-family="Times,serif" font-size="14.00" fill="#000000">MdModule</text>
</g>
<!-- MdModule&#45;&gt;DashboardModule -->
<g id="edge3" class="edge">
<title>MdModule&#45;&gt;DashboardModule</title>
<path fill="none" stroke="#000000" d="M102.5,-122.1061C102.5,-141.3391 102.5,-169 102.5,-169 102.5,-169 143.1277,-169 143.1277,-169"/>
<polygon fill="#000000" stroke="#000000" points="143.1277,-172.5001 153.1277,-169 143.1276,-165.5001 143.1277,-172.5001"/>
</g>
</g>
</svg>
