<?xml version="1.0" encoding="UTF-8" standalone="no"?>
<!DOCTYPE svg PUBLIC "-//W3C//DTD SVG 1.1//EN"
 "http://www.w3.org/Graphics/SVG/1.1/DTD/svg11.dtd">
<!-- Generated by graphviz version 2.40.1 (20161225.0304)
 -->
<!-- Title: dependencies Pages: 1 -->
<svg width="1071pt" height="211pt"
 viewBox="0.00 0.00 1071.00 211.00" xmlns="http://www.w3.org/2000/svg" xmlns:xlink="http://www.w3.org/1999/xlink">
<g id="graph0" class="graph" transform="scale(1 1) rotate(0) translate(4 207)">
<title>dependencies</title>
<polygon fill="#ffffff" stroke="transparent" points="-4,4 -4,-207 1067,-207 1067,4 -4,4"/>
<text text-anchor="start" x="510.5091" y="-42.4" font-family="sans-serif" font-weight="bold" font-size="14.00" fill="#000000">Legend</text>
<polygon fill="#ffffb3" stroke="transparent" points="297.5,-10 297.5,-30 317.5,-30 317.5,-10 297.5,-10"/>
<text text-anchor="start" x="321.129" y="-15.4" font-family="sans-serif" font-size="14.00" fill="#000000"> &#160;Declarations</text>
<polygon fill="#8dd3c7" stroke="transparent" points="410.5,-10 410.5,-30 430.5,-30 430.5,-10 410.5,-10"/>
<text text-anchor="start" x="434.2251" y="-15.4" font-family="sans-serif" font-size="14.00" fill="#000000"> &#160;Module</text>
<polygon fill="#80b1d3" stroke="transparent" points="496.5,-10 496.5,-30 516.5,-30 516.5,-10 496.5,-10"/>
<text text-anchor="start" x="520.2812" y="-15.4" font-family="sans-serif" font-size="14.00" fill="#000000"> &#160;Bootstrap</text>
<polygon fill="#fdb462" stroke="transparent" points="593.5,-10 593.5,-30 613.5,-30 613.5,-10 593.5,-10"/>
<text text-anchor="start" x="617.1732" y="-15.4" font-family="sans-serif" font-size="14.00" fill="#000000"> &#160;Providers</text>
<polygon fill="#fb8072" stroke="transparent" points="689.5,-10 689.5,-30 709.5,-30 709.5,-10 689.5,-10"/>
<text text-anchor="start" x="713.2258" y="-15.4" font-family="sans-serif" font-size="14.00" fill="#000000"> &#160;Exports</text>
<g id="clust1" class="cluster">
<title>cluster_Forms</title>
<polygon fill="none" stroke="#000000" stroke-dasharray="1,5" points="8,-70 8,-195 1055,-195 1055,-70 8,-70"/>
</g>
<g id="clust2" class="cluster">
<title>cluster_Forms_declarations</title>
<polygon fill="none" stroke="#000000" points="146,-78 146,-130 1047,-130 1047,-78 146,-78"/>
</g>
<g id="clust8" class="cluster">
<title>cluster_Forms_imports</title>
<polygon fill="none" stroke="#000000" points="16,-78 16,-130 138,-130 138,-78 16,-78"/>
</g>
<!-- ExtendedFormsComponent -->
<g id="node1" class="node">
<title>ExtendedFormsComponent</title>
<polygon fill="#ffffb3" stroke="#000000" points="1038.9832,-122 869.0168,-122 869.0168,-86 1038.9832,-86 1038.9832,-122"/>
<text text-anchor="middle" x="954" y="-99.8" font-family="Times,serif" font-size="14.00" fill="#000000">ExtendedFormsComponent</text>
</g>
<!-- Forms -->
<g id="node6" class="node">
<title>Forms</title>
<polygon fill="#8dd3c7" stroke="#000000" points="502,-187 499,-191 478,-191 475,-187 448,-187 448,-151 502,-151 502,-187"/>
<text text-anchor="middle" x="475" y="-164.8" font-family="Times,serif" font-size="14.00" fill="#000000">Forms</text>
</g>
<!-- ExtendedFormsComponent&#45;&gt;Forms -->
<g id="edge1" class="edge">
<title>ExtendedFormsComponent&#45;&gt;Forms</title>
<path fill="none" stroke="#000000" d="M954,-122.2843C954,-143.3211 954,-175 954,-175 954,-175 512.1255,-175 512.1255,-175"/>
<polygon fill="#000000" stroke="#000000" points="512.1256,-171.5001 502.1255,-175 512.1255,-178.5001 512.1256,-171.5001"/>
</g>
<!-- FieldErrorDisplayComponent -->
<g id="node2" class="node">
<title>FieldErrorDisplayComponent</title>
<polygon fill="#ffffb3" stroke="#000000" points="850.6923,-122 667.3077,-122 667.3077,-86 850.6923,-86 850.6923,-122"/>
<text text-anchor="middle" x="759" y="-99.8" font-family="Times,serif" font-size="14.00" fill="#000000">FieldErrorDisplayComponent</text>
</g>
<!-- FieldErrorDisplayComponent&#45;&gt;Forms -->
<g id="edge2" class="edge">
<title>FieldErrorDisplayComponent&#45;&gt;Forms</title>
<path fill="none" stroke="#000000" d="M759,-122.0225C759,-139.3734 759,-163 759,-163 759,-163 512.2311,-163 512.2311,-163"/>
<polygon fill="#000000" stroke="#000000" points="512.2311,-159.5001 502.2311,-163 512.2311,-166.5001 512.2311,-159.5001"/>
</g>
<!-- RegularFormsComponent -->
<g id="node3" class="node">
<title>RegularFormsComponent</title>
<polygon fill="#ffffb3" stroke="#000000" points="649.9284,-122 488.0716,-122 488.0716,-86 649.9284,-86 649.9284,-122"/>
<text text-anchor="middle" x="569" y="-99.8" font-family="Times,serif" font-size="14.00" fill="#000000">RegularFormsComponent</text>
</g>
<!-- RegularFormsComponent&#45;&gt;Forms -->
<g id="edge3" class="edge">
<title>RegularFormsComponent&#45;&gt;Forms</title>
<path fill="none" stroke="#000000" d="M495.1431,-122.1061C495.1431,-122.1061 495.1431,-140.991 495.1431,-140.991"/>
<polygon fill="#000000" stroke="#000000" points="491.6431,-140.9909 495.1431,-150.991 498.6431,-140.991 491.6431,-140.9909"/>
</g>
<!-- ValidationFormsComponent -->
<g id="node4" class="node">
<title>ValidationFormsComponent</title>
<polygon fill="#ffffb3" stroke="#000000" points="470.2091,-122 293.7909,-122 293.7909,-86 470.2091,-86 470.2091,-122"/>
<text text-anchor="middle" x="382" y="-99.8" font-family="Times,serif" font-size="14.00" fill="#000000">ValidationFormsComponent</text>
</g>
<!-- ValidationFormsComponent&#45;&gt;Forms -->
<g id="edge4" class="edge">
<title>ValidationFormsComponent&#45;&gt;Forms</title>
<path fill="none" stroke="#000000" d="M459.0523,-122.1061C459.0523,-122.1061 459.0523,-140.991 459.0523,-140.991"/>
<polygon fill="#000000" stroke="#000000" points="455.5523,-140.9909 459.0523,-150.991 462.5523,-140.991 455.5523,-140.9909"/>
</g>
<!-- WizardComponent -->
<g id="node5" class="node">
<title>WizardComponent</title>
<polygon fill="#ffffb3" stroke="#000000" points="276.0283,-122 153.9717,-122 153.9717,-86 276.0283,-86 276.0283,-122"/>
<text text-anchor="middle" x="215" y="-99.8" font-family="Times,serif" font-size="14.00" fill="#000000">WizardComponent</text>
</g>
<!-- WizardComponent&#45;&gt;Forms -->
<g id="edge5" class="edge">
<title>WizardComponent&#45;&gt;Forms</title>
<path fill="none" stroke="#000000" d="M215,-122.0225C215,-139.3734 215,-163 215,-163 215,-163 437.6669,-163 437.6669,-163"/>
<polygon fill="#000000" stroke="#000000" points="437.6669,-166.5001 447.6669,-163 437.6668,-159.5001 437.6669,-166.5001"/>
</g>
<!-- MaterialModule -->
<g id="node7" class="node">
<title>MaterialModule</title>
<polygon fill="#8dd3c7" stroke="#000000" points="130.4706,-122 127.4706,-126 106.4706,-126 103.4706,-122 23.5294,-122 23.5294,-86 130.4706,-86 130.4706,-122"/>
<text text-anchor="middle" x="77" y="-99.8" font-family="Times,serif" font-size="14.00" fill="#000000">MaterialModule</text>
</g>
<!-- MaterialModule&#45;&gt;Forms -->
<g id="edge6" class="edge">
<title>MaterialModule&#45;&gt;Forms</title>
<path fill="none" stroke="#000000" d="M77,-122.2843C77,-143.3211 77,-175 77,-175 77,-175 437.9567,-175 437.9567,-175"/>
<polygon fill="#000000" stroke="#000000" points="437.9568,-178.5001 447.9567,-175 437.9567,-171.5001 437.9568,-178.5001"/>
</g>
</g>
</svg>
