<?xml version="1.0" encoding="UTF-8" standalone="no"?>
<!DOCTYPE svg PUBLIC "-//W3C//DTD SVG 1.1//EN"
 "http://www.w3.org/Graphics/SVG/1.1/DTD/svg11.dtd">
<!-- Generated by graphviz version 2.40.1 (20161225.0304)
 -->
<!-- Title: dependencies Pages: 1 -->
<svg width="1147pt" height="211pt"
 viewBox="0.00 0.00 1147.00 211.00" xmlns="http://www.w3.org/2000/svg" xmlns:xlink="http://www.w3.org/1999/xlink">
<g id="graph0" class="graph" transform="scale(1 1) rotate(0) translate(4 207)">
<title>dependencies</title>
<polygon fill="#ffffff" stroke="transparent" points="-4,4 -4,-207 1143,-207 1143,4 -4,4"/>
<text text-anchor="start" x="548.5091" y="-42.4" font-family="sans-serif" font-weight="bold" font-size="14.00" fill="#000000">Legend</text>
<polygon fill="#ffffb3" stroke="transparent" points="335.5,-10 335.5,-30 355.5,-30 355.5,-10 335.5,-10"/>
<text text-anchor="start" x="359.129" y="-15.4" font-family="sans-serif" font-size="14.00" fill="#000000"> &#160;Declarations</text>
<polygon fill="#8dd3c7" stroke="transparent" points="448.5,-10 448.5,-30 468.5,-30 468.5,-10 448.5,-10"/>
<text text-anchor="start" x="472.2251" y="-15.4" font-family="sans-serif" font-size="14.00" fill="#000000"> &#160;Module</text>
<polygon fill="#80b1d3" stroke="transparent" points="534.5,-10 534.5,-30 554.5,-30 554.5,-10 534.5,-10"/>
<text text-anchor="start" x="558.2812" y="-15.4" font-family="sans-serif" font-size="14.00" fill="#000000"> &#160;Bootstrap</text>
<polygon fill="#fdb462" stroke="transparent" points="631.5,-10 631.5,-30 651.5,-30 651.5,-10 631.5,-10"/>
<text text-anchor="start" x="655.1732" y="-15.4" font-family="sans-serif" font-size="14.00" fill="#000000"> &#160;Providers</text>
<polygon fill="#fb8072" stroke="transparent" points="727.5,-10 727.5,-30 747.5,-30 747.5,-10 727.5,-10"/>
<text text-anchor="start" x="751.2258" y="-15.4" font-family="sans-serif" font-size="14.00" fill="#000000"> &#160;Exports</text>
<g id="clust1" class="cluster">
<title>cluster_TablesModule</title>
<polygon fill="none" stroke="#000000" stroke-dasharray="1,5" points="8,-70 8,-195 1131,-195 1131,-70 8,-70"/>
</g>
<g id="clust2" class="cluster">
<title>cluster_TablesModule_declarations</title>
<polygon fill="none" stroke="#000000" points="146,-78 146,-130 1123,-130 1123,-78 146,-78"/>
</g>
<g id="clust9" class="cluster">
<title>cluster_TablesModule_imports</title>
<polygon fill="none" stroke="#000000" points="16,-78 16,-130 138,-130 138,-78 16,-78"/>
</g>
<!-- CallbackPipe -->
<g id="node1" class="node">
<title>CallbackPipe</title>
<polygon fill="#ffffb3" stroke="#000000" points="1115.1501,-122 1024.8499,-122 1024.8499,-86 1115.1501,-86 1115.1501,-122"/>
<text text-anchor="middle" x="1070" y="-99.8" font-family="Times,serif" font-size="14.00" fill="#000000">CallbackPipe</text>
</g>
<!-- TablesModule -->
<g id="node7" class="node">
<title>TablesModule</title>
<polygon fill="#8dd3c7" stroke="#000000" points="633.3669,-187 630.3669,-191 609.3669,-191 606.3669,-187 536.6331,-187 536.6331,-151 633.3669,-151 633.3669,-187"/>
<text text-anchor="middle" x="585" y="-164.8" font-family="Times,serif" font-size="14.00" fill="#000000">TablesModule</text>
</g>
<!-- CallbackPipe&#45;&gt;TablesModule -->
<g id="edge1" class="edge">
<title>CallbackPipe&#45;&gt;TablesModule</title>
<path fill="none" stroke="#000000" d="M1070,-122.2921C1070,-144.2057 1070,-178 1070,-178 1070,-178 643.7243,-178 643.7243,-178"/>
<polygon fill="#000000" stroke="#000000" points="643.7243,-174.5001 633.7243,-178 643.7242,-181.5001 643.7243,-174.5001"/>
</g>
<!-- DataTableComponent -->
<g id="node2" class="node">
<title>DataTableComponent</title>
<polygon fill="#ffffb3" stroke="#000000" points="1006.6317,-122 867.3683,-122 867.3683,-86 1006.6317,-86 1006.6317,-122"/>
<text text-anchor="middle" x="937" y="-99.8" font-family="Times,serif" font-size="14.00" fill="#000000">DataTableComponent</text>
</g>
<!-- DataTableComponent&#45;&gt;TablesModule -->
<g id="edge2" class="edge">
<title>DataTableComponent&#45;&gt;TablesModule</title>
<path fill="none" stroke="#000000" d="M937,-122.1061C937,-141.3391 937,-169 937,-169 937,-169 643.5745,-169 643.5745,-169"/>
<polygon fill="#000000" stroke="#000000" points="643.5746,-165.5001 633.5745,-169 643.5745,-172.5001 643.5746,-165.5001"/>
</g>
<!-- ExtendedTableComponent -->
<g id="node3" class="node">
<title>ExtendedTableComponent</title>
<polygon fill="#ffffb3" stroke="#000000" points="849.0772,-122 682.9228,-122 682.9228,-86 849.0772,-86 849.0772,-122"/>
<text text-anchor="middle" x="766" y="-99.8" font-family="Times,serif" font-size="14.00" fill="#000000">ExtendedTableComponent</text>
</g>
<!-- ExtendedTableComponent&#45;&gt;TablesModule -->
<g id="edge3" class="edge">
<title>ExtendedTableComponent&#45;&gt;TablesModule</title>
<path fill="none" stroke="#000000" d="M766,-122.027C766,-138.3976 766,-160 766,-160 766,-160 643.5047,-160 643.5047,-160"/>
<polygon fill="#000000" stroke="#000000" points="643.5047,-156.5001 633.5047,-160 643.5046,-163.5001 643.5047,-156.5001"/>
</g>
<!-- MisProductosComponent -->
<g id="node4" class="node">
<title>MisProductosComponent</title>
<polygon fill="#ffffb3" stroke="#000000" points="664.6052,-122 505.3948,-122 505.3948,-86 664.6052,-86 664.6052,-122"/>
<text text-anchor="middle" x="585" y="-99.8" font-family="Times,serif" font-size="14.00" fill="#000000">MisProductosComponent</text>
</g>
<!-- MisProductosComponent&#45;&gt;TablesModule -->
<g id="edge4" class="edge">
<title>MisProductosComponent&#45;&gt;TablesModule</title>
<path fill="none" stroke="#000000" d="M585,-122.1061C585,-122.1061 585,-140.991 585,-140.991"/>
<polygon fill="#000000" stroke="#000000" points="581.5001,-140.9909 585,-150.991 588.5001,-140.991 581.5001,-140.9909"/>
</g>
<!-- RegularTableComponent -->
<g id="node5" class="node">
<title>RegularTableComponent</title>
<polygon fill="#ffffb3" stroke="#000000" points="487.5225,-122 330.4775,-122 330.4775,-86 487.5225,-86 487.5225,-122"/>
<text text-anchor="middle" x="409" y="-99.8" font-family="Times,serif" font-size="14.00" fill="#000000">RegularTableComponent</text>
</g>
<!-- RegularTableComponent&#45;&gt;TablesModule -->
<g id="edge5" class="edge">
<title>RegularTableComponent&#45;&gt;TablesModule</title>
<path fill="none" stroke="#000000" d="M409,-122.027C409,-138.3976 409,-160 409,-160 409,-160 526.4413,-160 526.4413,-160"/>
<polygon fill="#000000" stroke="#000000" points="526.4414,-163.5001 536.4413,-160 526.4413,-156.5001 526.4414,-163.5001"/>
</g>
<!-- SociosAdminComponent -->
<g id="node6" class="node">
<title>SociosAdminComponent</title>
<polygon fill="#ffffb3" stroke="#000000" points="311.5532,-122 154.4468,-122 154.4468,-86 311.5532,-86 311.5532,-122"/>
<text text-anchor="middle" x="233" y="-99.8" font-family="Times,serif" font-size="14.00" fill="#000000">SociosAdminComponent</text>
</g>
<!-- SociosAdminComponent&#45;&gt;TablesModule -->
<g id="edge6" class="edge">
<title>SociosAdminComponent&#45;&gt;TablesModule</title>
<path fill="none" stroke="#000000" d="M233,-122.1061C233,-141.3391 233,-169 233,-169 233,-169 526.4255,-169 526.4255,-169"/>
<polygon fill="#000000" stroke="#000000" points="526.4255,-172.5001 536.4255,-169 526.4254,-165.5001 526.4255,-172.5001"/>
</g>
<!-- MaterialModule -->
<g id="node8" class="node">
<title>MaterialModule</title>
<polygon fill="#8dd3c7" stroke="#000000" points="130.4706,-122 127.4706,-126 106.4706,-126 103.4706,-122 23.5294,-122 23.5294,-86 130.4706,-86 130.4706,-122"/>
<text text-anchor="middle" x="77" y="-99.8" font-family="Times,serif" font-size="14.00" fill="#000000">MaterialModule</text>
</g>
<!-- MaterialModule&#45;&gt;TablesModule -->
<g id="edge7" class="edge">
<title>MaterialModule&#45;&gt;TablesModule</title>
<path fill="none" stroke="#000000" d="M77,-122.2921C77,-144.2057 77,-178 77,-178 77,-178 526.2908,-178 526.2908,-178"/>
<polygon fill="#000000" stroke="#000000" points="526.2909,-181.5001 536.2908,-178 526.2908,-174.5001 526.2909,-181.5001"/>
</g>
</g>
</svg>
