<?xml version="1.0" encoding="UTF-8" standalone="no"?>
<!DOCTYPE svg PUBLIC "-//W3C//DTD SVG 1.1//EN"
 "http://www.w3.org/Graphics/SVG/1.1/DTD/svg11.dtd">
<!-- Generated by graphviz version 2.40.1 (20161225.0304)
 -->
<!-- Title: dependencies Pages: 1 -->
<svg width="569pt" height="211pt"
 viewBox="0.00 0.00 569.00 211.00" xmlns="http://www.w3.org/2000/svg" xmlns:xlink="http://www.w3.org/1999/xlink">
<g id="graph0" class="graph" transform="scale(1 1) rotate(0) translate(4 207)">
<title>dependencies</title>
<polygon fill="#ffffff" stroke="transparent" points="-4,4 -4,-207 565,-207 565,4 -4,4"/>
<text text-anchor="start" x="259.5091" y="-42.4" font-family="sans-serif" font-weight="bold" font-size="14.00" fill="#000000">Legend</text>
<polygon fill="#ffffb3" stroke="transparent" points="46.5,-10 46.5,-30 66.5,-30 66.5,-10 46.5,-10"/>
<text text-anchor="start" x="70.129" y="-15.4" font-family="sans-serif" font-size="14.00" fill="#000000"> &#160;Declarations</text>
<polygon fill="#8dd3c7" stroke="transparent" points="159.5,-10 159.5,-30 179.5,-30 179.5,-10 159.5,-10"/>
<text text-anchor="start" x="183.2251" y="-15.4" font-family="sans-serif" font-size="14.00" fill="#000000"> &#160;Module</text>
<polygon fill="#80b1d3" stroke="transparent" points="245.5,-10 245.5,-30 265.5,-30 265.5,-10 245.5,-10"/>
<text text-anchor="start" x="269.2812" y="-15.4" font-family="sans-serif" font-size="14.00" fill="#000000"> &#160;Bootstrap</text>
<polygon fill="#fdb462" stroke="transparent" points="342.5,-10 342.5,-30 362.5,-30 362.5,-10 342.5,-10"/>
<text text-anchor="start" x="366.1732" y="-15.4" font-family="sans-serif" font-size="14.00" fill="#000000"> &#160;Providers</text>
<polygon fill="#fb8072" stroke="transparent" points="438.5,-10 438.5,-30 458.5,-30 458.5,-10 438.5,-10"/>
<text text-anchor="start" x="462.2258" y="-15.4" font-family="sans-serif" font-size="14.00" fill="#000000"> &#160;Exports</text>
<g id="clust1" class="cluster">
<title>cluster_MapsModule</title>
<polygon fill="none" stroke="#000000" stroke-dasharray="1,5" points="8,-70 8,-195 553,-195 553,-70 8,-70"/>
</g>
<g id="clust2" class="cluster">
<title>cluster_MapsModule_declarations</title>
<polygon fill="none" stroke="#000000" points="16,-78 16,-130 545,-130 545,-78 16,-78"/>
</g>
<!-- FullScreenMapsComponent -->
<g id="node1" class="node">
<title>FullScreenMapsComponent</title>
<polygon fill="#ffffb3" stroke="#000000" points="536.587,-122 363.413,-122 363.413,-86 536.587,-86 536.587,-122"/>
<text text-anchor="middle" x="450" y="-99.8" font-family="Times,serif" font-size="14.00" fill="#000000">FullScreenMapsComponent</text>
</g>
<!-- MapsModule -->
<g id="node4" class="node">
<title>MapsModule</title>
<polygon fill="#8dd3c7" stroke="#000000" points="314.1543,-187 311.1543,-191 290.1543,-191 287.1543,-187 223.8457,-187 223.8457,-151 314.1543,-151 314.1543,-187"/>
<text text-anchor="middle" x="269" y="-164.8" font-family="Times,serif" font-size="14.00" fill="#000000">MapsModule</text>
</g>
<!-- FullScreenMapsComponent&#45;&gt;MapsModule -->
<g id="edge1" class="edge">
<title>FullScreenMapsComponent&#45;&gt;MapsModule</title>
<path fill="none" stroke="#000000" d="M450,-122.1061C450,-141.3391 450,-169 450,-169 450,-169 324.207,-169 324.207,-169"/>
<polygon fill="#000000" stroke="#000000" points="324.2071,-165.5001 314.207,-169 324.207,-172.5001 324.2071,-165.5001"/>
</g>
<!-- GoogleMapsComponent -->
<g id="node2" class="node">
<title>GoogleMapsComponent</title>
<polygon fill="#ffffb3" stroke="#000000" points="345.6484,-122 192.3516,-122 192.3516,-86 345.6484,-86 345.6484,-122"/>
<text text-anchor="middle" x="269" y="-99.8" font-family="Times,serif" font-size="14.00" fill="#000000">GoogleMapsComponent</text>
</g>
<!-- GoogleMapsComponent&#45;&gt;MapsModule -->
<g id="edge2" class="edge">
<title>GoogleMapsComponent&#45;&gt;MapsModule</title>
<path fill="none" stroke="#000000" d="M269,-122.1061C269,-122.1061 269,-140.991 269,-140.991"/>
<polygon fill="#000000" stroke="#000000" points="265.5001,-140.9909 269,-150.991 272.5001,-140.991 265.5001,-140.9909"/>
</g>
<!-- VectorMapsComponent -->
<g id="node3" class="node">
<title>VectorMapsComponent</title>
<polygon fill="#ffffb3" stroke="#000000" points="174.024,-122 23.976,-122 23.976,-86 174.024,-86 174.024,-122"/>
<text text-anchor="middle" x="99" y="-99.8" font-family="Times,serif" font-size="14.00" fill="#000000">VectorMapsComponent</text>
</g>
<!-- VectorMapsComponent&#45;&gt;MapsModule -->
<g id="edge3" class="edge">
<title>VectorMapsComponent&#45;&gt;MapsModule</title>
<path fill="none" stroke="#000000" d="M99,-122.1061C99,-141.3391 99,-169 99,-169 99,-169 213.4431,-169 213.4431,-169"/>
<polygon fill="#000000" stroke="#000000" points="213.4432,-172.5001 223.4431,-169 213.4431,-165.5001 213.4432,-172.5001"/>
</g>
</g>
</svg>
