<?xml version="1.0" encoding="UTF-8" standalone="no"?>
<!DOCTYPE svg PUBLIC "-//W3C//DTD SVG 1.1//EN"
 "http://www.w3.org/Graphics/SVG/1.1/DTD/svg11.dtd">
<!-- Generated by graphviz version 2.40.1 (20161225.0304)
 -->
<!-- Title: dependencies Pages: 1 -->
<svg width="504pt" height="284pt"
 viewBox="0.00 0.00 504.00 284.00" xmlns="http://www.w3.org/2000/svg" xmlns:xlink="http://www.w3.org/1999/xlink">
<g id="graph0" class="graph" transform="scale(1 1) rotate(0) translate(4 280)">
<title>dependencies</title>
<polygon fill="#ffffff" stroke="transparent" points="-4,4 -4,-280 500,-280 500,4 -4,4"/>
<text text-anchor="start" x="227.0091" y="-42.4" font-family="sans-serif" font-weight="bold" font-size="14.00" fill="#000000">Legend</text>
<polygon fill="#ffffb3" stroke="transparent" points="14,-10 14,-30 34,-30 34,-10 14,-10"/>
<text text-anchor="start" x="37.629" y="-15.4" font-family="sans-serif" font-size="14.00" fill="#000000"> &#160;Declarations</text>
<polygon fill="#8dd3c7" stroke="transparent" points="127,-10 127,-30 147,-30 147,-10 127,-10"/>
<text text-anchor="start" x="150.7251" y="-15.4" font-family="sans-serif" font-size="14.00" fill="#000000"> &#160;Module</text>
<polygon fill="#80b1d3" stroke="transparent" points="213,-10 213,-30 233,-30 233,-10 213,-10"/>
<text text-anchor="start" x="236.7812" y="-15.4" font-family="sans-serif" font-size="14.00" fill="#000000"> &#160;Bootstrap</text>
<polygon fill="#fdb462" stroke="transparent" points="310,-10 310,-30 330,-30 330,-10 310,-10"/>
<text text-anchor="start" x="333.6732" y="-15.4" font-family="sans-serif" font-size="14.00" fill="#000000"> &#160;Providers</text>
<polygon fill="#fb8072" stroke="transparent" points="406,-10 406,-30 426,-30 426,-10 406,-10"/>
<text text-anchor="start" x="429.7258" y="-15.4" font-family="sans-serif" font-size="14.00" fill="#000000"> &#160;Exports</text>
<g id="clust1" class="cluster">
<title>cluster_MdModule</title>
<polygon fill="none" stroke="#000000" stroke-dasharray="1,5" points="87,-70 87,-268 409,-268 409,-70 87,-70"/>
</g>
<g id="clust2" class="cluster">
<title>cluster_MdModule_declarations</title>
<polygon fill="none" stroke="#000000" points="99,-78 99,-130 397,-130 397,-78 99,-78"/>
</g>
<g id="clust6" class="cluster">
<title>cluster_MdModule_exports</title>
<polygon fill="none" stroke="#000000" points="95,-208 95,-260 401,-260 401,-208 95,-208"/>
</g>
<!-- MdChartComponent -->
<g id="node1" class="node">
<title>MdChartComponent</title>
<polygon fill="#ffffb3" stroke="#000000" points="388.8795,-122 257.1205,-122 257.1205,-86 388.8795,-86 388.8795,-122"/>
<text text-anchor="middle" x="323" y="-99.8" font-family="Times,serif" font-size="14.00" fill="#000000">MdChartComponent</text>
</g>
<!-- MdModule -->
<g id="node3" class="node">
<title>MdModule</title>
<polygon fill="#8dd3c7" stroke="#000000" points="213.4944,-187 210.4944,-191 189.4944,-191 186.4944,-187 134.5056,-187 134.5056,-151 213.4944,-151 213.4944,-187"/>
<text text-anchor="middle" x="174" y="-164.8" font-family="Times,serif" font-size="14.00" fill="#000000">MdModule</text>
</g>
<!-- MdChartComponent&#45;&gt;MdModule -->
<g id="edge1" class="edge">
<title>MdChartComponent&#45;&gt;MdModule</title>
<path fill="none" stroke="#000000" d="M345.0632,-122.0225C345.0632,-139.3734 345.0632,-163 345.0632,-163 345.0632,-163 223.6753,-163 223.6753,-163"/>
<polygon fill="#000000" stroke="#000000" points="223.6753,-159.5001 213.6753,-163 223.6753,-166.5001 223.6753,-159.5001"/>
</g>
<!-- MdTableComponent -->
<g id="node2" class="node">
<title>MdTableComponent</title>
<polygon fill="#ffffb3" stroke="#000000" points="239.1499,-122 106.8501,-122 106.8501,-86 239.1499,-86 239.1499,-122"/>
<text text-anchor="middle" x="173" y="-99.8" font-family="Times,serif" font-size="14.00" fill="#000000">MdTableComponent</text>
</g>
<!-- MdTableComponent&#45;&gt;MdModule -->
<g id="edge2" class="edge">
<title>MdTableComponent&#45;&gt;MdModule</title>
<path fill="none" stroke="#000000" d="M174,-122.1061C174,-122.1061 174,-140.991 174,-140.991"/>
<polygon fill="#000000" stroke="#000000" points="170.5001,-140.9909 174,-150.991 177.5001,-140.991 170.5001,-140.9909"/>
</g>
<!-- MdChartComponent  -->
<g id="node4" class="node">
<title>MdChartComponent </title>
<polygon fill="#fb8072" stroke="#000000" points="392.8799,-252 257.1201,-252 257.1201,-216 392.8799,-216 392.8799,-252"/>
<text text-anchor="middle" x="325" y="-229.8" font-family="Times,serif" font-size="14.00" fill="#000000">MdChartComponent </text>
</g>
<!-- MdModule&#45;&gt;MdChartComponent  -->
<g id="edge3" class="edge">
<title>MdModule&#45;&gt;MdChartComponent </title>
<path fill="none" stroke="#000000" stroke-dasharray="5,2" d="M213.5455,-175C250.8815,-175 301.1868,-175 301.1868,-175 301.1868,-175 301.1868,-205.9775 301.1868,-205.9775"/>
<polygon fill="#000000" stroke="#000000" points="297.6869,-205.9774 301.1868,-215.9775 304.6869,-205.9775 297.6869,-205.9774"/>
</g>
<!-- MdTableComponent  -->
<g id="node5" class="node">
<title>MdTableComponent </title>
<polygon fill="#fb8072" stroke="#000000" points="239.1495,-252 102.8505,-252 102.8505,-216 239.1495,-216 239.1495,-252"/>
<text text-anchor="middle" x="171" y="-229.8" font-family="Times,serif" font-size="14.00" fill="#000000">MdTableComponent </text>
</g>
<!-- MdModule&#45;&gt;MdTableComponent  -->
<g id="edge4" class="edge">
<title>MdModule&#45;&gt;MdTableComponent </title>
<path fill="none" stroke="#000000" stroke-dasharray="5,2" d="M174,-187.1061C174,-187.1061 174,-205.991 174,-205.991"/>
<polygon fill="#000000" stroke="#000000" points="170.5001,-205.9909 174,-215.991 177.5001,-205.991 170.5001,-205.9909"/>
</g>
</g>
</svg>
