<?xml version="1.0" encoding="UTF-8" standalone="no"?>
<!DOCTYPE svg PUBLIC "-//W3C//DTD SVG 1.1//EN"
 "http://www.w3.org/Graphics/SVG/1.1/DTD/svg11.dtd">
<!-- Generated by graphviz version 2.40.1 (20161225.0304)
 -->
<!-- Title: dependencies Pages: 1 -->
<svg width="504pt" height="211pt"
 viewBox="0.00 0.00 504.00 211.00" xmlns="http://www.w3.org/2000/svg" xmlns:xlink="http://www.w3.org/1999/xlink">
<g id="graph0" class="graph" transform="scale(1 1) rotate(0) translate(4 207)">
<title>dependencies</title>
<polygon fill="#ffffff" stroke="transparent" points="-4,4 -4,-207 500,-207 500,4 -4,4"/>
<text text-anchor="start" x="227.0091" y="-42.4" font-family="sans-serif" font-weight="bold" font-size="14.00" fill="#000000">Legend</text>
<polygon fill="#ffffb3" stroke="transparent" points="14,-10 14,-30 34,-30 34,-10 14,-10"/>
<text text-anchor="start" x="37.629" y="-15.4" font-family="sans-serif" font-size="14.00" fill="#000000"> &#160;Declarations</text>
<polygon fill="#8dd3c7" stroke="transparent" points="127,-10 127,-30 147,-30 147,-10 127,-10"/>
<text text-anchor="start" x="150.7251" y="-15.4" font-family="sans-serif" font-size="14.00" fill="#000000"> &#160;Module</text>
<polygon fill="#80b1d3" stroke="transparent" points="213,-10 213,-30 233,-30 233,-10 213,-10"/>
<text text-anchor="start" x="236.7812" y="-15.4" font-family="sans-serif" font-size="14.00" fill="#000000"> &#160;Bootstrap</text>
<polygon fill="#fdb462" stroke="transparent" points="310,-10 310,-30 330,-30 330,-10 310,-10"/>
<text text-anchor="start" x="333.6732" y="-15.4" font-family="sans-serif" font-size="14.00" fill="#000000"> &#160;Providers</text>
<polygon fill="#fb8072" stroke="transparent" points="406,-10 406,-30 426,-30 426,-10 406,-10"/>
<text text-anchor="start" x="429.7258" y="-15.4" font-family="sans-serif" font-size="14.00" fill="#000000"> &#160;Exports</text>
<g id="clust1" class="cluster">
<title>cluster_WidgetsModule</title>
<polygon fill="none" stroke="#000000" stroke-dasharray="1,5" points="103,-70 103,-195 393,-195 393,-70 103,-70"/>
</g>
<g id="clust2" class="cluster">
<title>cluster_WidgetsModule_declarations</title>
<polygon fill="none" stroke="#000000" points="241,-78 241,-130 385,-130 385,-78 241,-78"/>
</g>
<g id="clust4" class="cluster">
<title>cluster_WidgetsModule_imports</title>
<polygon fill="none" stroke="#000000" points="111,-78 111,-130 233,-130 233,-78 111,-78"/>
</g>
<!-- WidgetsComponent -->
<g id="node1" class="node">
<title>WidgetsComponent</title>
<polygon fill="#ffffb3" stroke="#000000" points="376.9874,-122 249.0126,-122 249.0126,-86 376.9874,-86 376.9874,-122"/>
<text text-anchor="middle" x="313" y="-99.8" font-family="Times,serif" font-size="14.00" fill="#000000">WidgetsComponent</text>
</g>
<!-- WidgetsModule -->
<g id="node2" class="node">
<title>WidgetsModule</title>
<polygon fill="#8dd3c7" stroke="#000000" points="295.205,-187 292.205,-191 271.205,-191 268.205,-187 188.795,-187 188.795,-151 295.205,-151 295.205,-187"/>
<text text-anchor="middle" x="242" y="-164.8" font-family="Times,serif" font-size="14.00" fill="#000000">WidgetsModule</text>
</g>
<!-- WidgetsComponent&#45;&gt;WidgetsModule -->
<g id="edge1" class="edge">
<title>WidgetsComponent&#45;&gt;WidgetsModule</title>
<path fill="none" stroke="#000000" d="M272.0544,-122.1061C272.0544,-122.1061 272.0544,-140.991 272.0544,-140.991"/>
<polygon fill="#000000" stroke="#000000" points="268.5544,-140.9909 272.0544,-150.991 275.5544,-140.991 268.5544,-140.9909"/>
</g>
<!-- MaterialModule -->
<g id="node3" class="node">
<title>MaterialModule</title>
<polygon fill="#8dd3c7" stroke="#000000" points="225.4706,-122 222.4706,-126 201.4706,-126 198.4706,-122 118.5294,-122 118.5294,-86 225.4706,-86 225.4706,-122"/>
<text text-anchor="middle" x="172" y="-99.8" font-family="Times,serif" font-size="14.00" fill="#000000">MaterialModule</text>
</g>
<!-- MaterialModule&#45;&gt;WidgetsModule -->
<g id="edge2" class="edge">
<title>MaterialModule&#45;&gt;WidgetsModule</title>
<path fill="none" stroke="#000000" d="M207.1915,-122.1061C207.1915,-122.1061 207.1915,-140.991 207.1915,-140.991"/>
<polygon fill="#000000" stroke="#000000" points="203.6915,-140.9909 207.1915,-150.991 210.6915,-140.991 203.6915,-140.9909"/>
</g>
</g>
</svg>
