<?xml version="1.0" encoding="UTF-8" standalone="no"?>
<!DOCTYPE svg PUBLIC "-//W3C//DTD SVG 1.1//EN"
 "http://www.w3.org/Graphics/SVG/1.1/DTD/svg11.dtd">
<!-- Generated by graphviz version 2.40.1 (20161225.0304)
 -->
<!-- Title: dependencies Pages: 1 -->
<svg width="1137pt" height="284pt"
 viewBox="0.00 0.00 1137.00 284.00" xmlns="http://www.w3.org/2000/svg" xmlns:xlink="http://www.w3.org/1999/xlink">
<g id="graph0" class="graph" transform="scale(1 1) rotate(0) translate(4 280)">
<title>dependencies</title>
<polygon fill="#ffffff" stroke="transparent" points="-4,4 -4,-280 1133,-280 1133,4 -4,4"/>
<text text-anchor="start" x="543.5091" y="-42.4" font-family="sans-serif" font-weight="bold" font-size="14.00" fill="#000000">Legend</text>
<polygon fill="#ffffb3" stroke="transparent" points="330.5,-10 330.5,-30 350.5,-30 350.5,-10 330.5,-10"/>
<text text-anchor="start" x="354.129" y="-15.4" font-family="sans-serif" font-size="14.00" fill="#000000"> &#160;Declarations</text>
<polygon fill="#8dd3c7" stroke="transparent" points="443.5,-10 443.5,-30 463.5,-30 463.5,-10 443.5,-10"/>
<text text-anchor="start" x="467.2251" y="-15.4" font-family="sans-serif" font-size="14.00" fill="#000000"> &#160;Module</text>
<polygon fill="#80b1d3" stroke="transparent" points="529.5,-10 529.5,-30 549.5,-30 549.5,-10 529.5,-10"/>
<text text-anchor="start" x="553.2812" y="-15.4" font-family="sans-serif" font-size="14.00" fill="#000000"> &#160;Bootstrap</text>
<polygon fill="#fdb462" stroke="transparent" points="626.5,-10 626.5,-30 646.5,-30 646.5,-10 626.5,-10"/>
<text text-anchor="start" x="650.1732" y="-15.4" font-family="sans-serif" font-size="14.00" fill="#000000"> &#160;Providers</text>
<polygon fill="#fb8072" stroke="transparent" points="722.5,-10 722.5,-30 742.5,-30 742.5,-10 722.5,-10"/>
<text text-anchor="start" x="746.2258" y="-15.4" font-family="sans-serif" font-size="14.00" fill="#000000"> &#160;Exports</text>
<g id="clust1" class="cluster">
<title>cluster_AppModule</title>
<polygon fill="none" stroke="#000000" stroke-dasharray="1,5" points="8,-70 8,-268 1121,-268 1121,-70 8,-70"/>
</g>
<g id="clust2" class="cluster">
<title>cluster_AppModule_declarations</title>
<polygon fill="none" stroke="#000000" points="647,-78 647,-130 1113,-130 1113,-78 647,-78"/>
</g>
<g id="clust6" class="cluster">
<title>cluster_AppModule_imports</title>
<polygon fill="none" stroke="#000000" points="16,-78 16,-130 639,-130 639,-78 16,-78"/>
</g>
<g id="clust8" class="cluster">
<title>cluster_AppModule_bootstrap</title>
<polygon fill="none" stroke="#000000" points="440,-208 440,-260 564,-260 564,-208 440,-208"/>
</g>
<!-- AdminLayoutComponent -->
<g id="node1" class="node">
<title>AdminLayoutComponent</title>
<polygon fill="#ffffb3" stroke="#000000" points="1104.878,-122 945.122,-122 945.122,-86 1104.878,-86 1104.878,-122"/>
<text text-anchor="middle" x="1025" y="-99.8" font-family="Times,serif" font-size="14.00" fill="#000000">AdminLayoutComponent</text>
</g>
<!-- AppModule -->
<g id="node4" class="node">
<title>AppModule</title>
<polygon fill="#8dd3c7" stroke="#000000" points="543.6571,-187 540.6571,-191 519.6571,-191 516.6571,-187 460.3429,-187 460.3429,-151 543.6571,-151 543.6571,-187"/>
<text text-anchor="middle" x="502" y="-164.8" font-family="Times,serif" font-size="14.00" fill="#000000">AppModule</text>
</g>
<!-- AdminLayoutComponent&#45;&gt;AppModule -->
<g id="edge1" class="edge">
<title>AdminLayoutComponent&#45;&gt;AppModule</title>
<path fill="none" stroke="#000000" d="M1025,-122.2921C1025,-144.2057 1025,-178 1025,-178 1025,-178 553.9152,-178 553.9152,-178"/>
<polygon fill="#000000" stroke="#000000" points="553.9152,-174.5001 543.9152,-178 553.9152,-181.5001 553.9152,-174.5001"/>
</g>
<!-- AppComponent -->
<g id="node2" class="node">
<title>AppComponent</title>
<polygon fill="#ffffb3" stroke="#000000" points="926.9399,-122 821.0601,-122 821.0601,-86 926.9399,-86 926.9399,-122"/>
<text text-anchor="middle" x="874" y="-99.8" font-family="Times,serif" font-size="14.00" fill="#000000">AppComponent</text>
</g>
<!-- AppComponent&#45;&gt;AppModule -->
<g id="edge2" class="edge">
<title>AppComponent&#45;&gt;AppModule</title>
<path fill="none" stroke="#000000" d="M874,-122.1061C874,-141.3391 874,-169 874,-169 874,-169 553.95,-169 553.95,-169"/>
<polygon fill="#000000" stroke="#000000" points="553.95,-165.5001 543.95,-169 553.95,-172.5001 553.95,-165.5001"/>
</g>
<!-- AuthLayoutComponent -->
<g id="node3" class="node">
<title>AuthLayoutComponent</title>
<polygon fill="#ffffb3" stroke="#000000" points="803.4874,-122 654.5126,-122 654.5126,-86 803.4874,-86 803.4874,-122"/>
<text text-anchor="middle" x="729" y="-99.8" font-family="Times,serif" font-size="14.00" fill="#000000">AuthLayoutComponent</text>
</g>
<!-- AuthLayoutComponent&#45;&gt;AppModule -->
<g id="edge3" class="edge">
<title>AuthLayoutComponent&#45;&gt;AppModule</title>
<path fill="none" stroke="#000000" d="M729,-122.027C729,-138.3976 729,-160 729,-160 729,-160 553.8998,-160 553.8998,-160"/>
<polygon fill="#000000" stroke="#000000" points="553.8999,-156.5001 543.8998,-160 553.8998,-163.5001 553.8999,-156.5001"/>
</g>
<!-- AppComponent  -->
<g id="node10" class="node">
<title>AppComponent </title>
<polygon fill="#80b1d3" stroke="#000000" points="556.439,-252 447.561,-252 447.561,-216 556.439,-216 556.439,-252"/>
<text text-anchor="middle" x="502" y="-229.8" font-family="Times,serif" font-size="14.00" fill="#000000">AppComponent </text>
</g>
<!-- AppModule&#45;&gt;AppComponent  -->
<g id="edge9" class="edge">
<title>AppModule&#45;&gt;AppComponent </title>
<path fill="none" stroke="#000000" stroke-dasharray="1,5" d="M502,-187.1061C502,-187.1061 502,-205.991 502,-205.991"/>
<polygon fill="#000000" stroke="#000000" points="498.5001,-205.9909 502,-215.991 505.5001,-205.991 498.5001,-205.9909"/>
</g>
<!-- FixedpluginModule -->
<g id="node5" class="node">
<title>FixedpluginModule</title>
<polygon fill="#8dd3c7" stroke="#000000" points="630.719,-122 627.719,-126 606.719,-126 603.719,-122 503.281,-122 503.281,-86 630.719,-86 630.719,-122"/>
<text text-anchor="middle" x="567" y="-99.8" font-family="Times,serif" font-size="14.00" fill="#000000">FixedpluginModule</text>
</g>
<!-- FixedpluginModule&#45;&gt;AppModule -->
<g id="edge4" class="edge">
<title>FixedpluginModule&#45;&gt;AppModule</title>
<path fill="none" stroke="#000000" d="M523.6094,-122.1061C523.6094,-122.1061 523.6094,-140.991 523.6094,-140.991"/>
<polygon fill="#000000" stroke="#000000" points="520.1095,-140.9909 523.6094,-150.991 527.1095,-140.991 520.1095,-140.9909"/>
</g>
<!-- FooterModule -->
<g id="node6" class="node">
<title>FooterModule</title>
<polygon fill="#8dd3c7" stroke="#000000" points="485.0983,-122 482.0983,-126 461.0983,-126 458.0983,-122 388.9017,-122 388.9017,-86 485.0983,-86 485.0983,-122"/>
<text text-anchor="middle" x="437" y="-99.8" font-family="Times,serif" font-size="14.00" fill="#000000">FooterModule</text>
</g>
<!-- FooterModule&#45;&gt;AppModule -->
<g id="edge5" class="edge">
<title>FooterModule&#45;&gt;AppModule</title>
<path fill="none" stroke="#000000" d="M472.6105,-122.1061C472.6105,-122.1061 472.6105,-140.991 472.6105,-140.991"/>
<polygon fill="#000000" stroke="#000000" points="469.1105,-140.9909 472.6105,-150.991 476.1105,-140.991 469.1105,-140.9909"/>
</g>
<!-- MaterialModule -->
<g id="node7" class="node">
<title>MaterialModule</title>
<polygon fill="#8dd3c7" stroke="#000000" points="370.4706,-122 367.4706,-126 346.4706,-126 343.4706,-122 263.5294,-122 263.5294,-86 370.4706,-86 370.4706,-122"/>
<text text-anchor="middle" x="317" y="-99.8" font-family="Times,serif" font-size="14.00" fill="#000000">MaterialModule</text>
</g>
<!-- MaterialModule&#45;&gt;AppModule -->
<g id="edge6" class="edge">
<title>MaterialModule&#45;&gt;AppModule</title>
<path fill="none" stroke="#000000" d="M317,-122.027C317,-138.3976 317,-160 317,-160 317,-160 450.0206,-160 450.0206,-160"/>
<polygon fill="#000000" stroke="#000000" points="450.0207,-163.5001 460.0206,-160 450.0206,-156.5001 450.0207,-163.5001"/>
</g>
<!-- NavbarModule -->
<g id="node8" class="node">
<title>NavbarModule</title>
<polygon fill="#8dd3c7" stroke="#000000" points="245.2465,-122 242.2465,-126 221.2465,-126 218.2465,-122 144.7535,-122 144.7535,-86 245.2465,-86 245.2465,-122"/>
<text text-anchor="middle" x="195" y="-99.8" font-family="Times,serif" font-size="14.00" fill="#000000">NavbarModule</text>
</g>
<!-- NavbarModule&#45;&gt;AppModule -->
<g id="edge7" class="edge">
<title>NavbarModule&#45;&gt;AppModule</title>
<path fill="none" stroke="#000000" d="M195,-122.1061C195,-141.3391 195,-169 195,-169 195,-169 450.2771,-169 450.2771,-169"/>
<polygon fill="#000000" stroke="#000000" points="450.2771,-172.5001 460.2771,-169 450.2771,-165.5001 450.2771,-172.5001"/>
</g>
<!-- SidebarModule -->
<g id="node9" class="node">
<title>SidebarModule</title>
<polygon fill="#8dd3c7" stroke="#000000" points="126.3133,-122 123.3133,-126 102.3133,-126 99.3133,-122 23.6867,-122 23.6867,-86 126.3133,-86 126.3133,-122"/>
<text text-anchor="middle" x="75" y="-99.8" font-family="Times,serif" font-size="14.00" fill="#000000">SidebarModule</text>
</g>
<!-- SidebarModule&#45;&gt;AppModule -->
<g id="edge8" class="edge">
<title>SidebarModule&#45;&gt;AppModule</title>
<path fill="none" stroke="#000000" d="M75,-122.2921C75,-144.2057 75,-178 75,-178 75,-178 450.28,-178 450.28,-178"/>
<polygon fill="#000000" stroke="#000000" points="450.28,-181.5001 460.28,-178 450.2799,-174.5001 450.28,-181.5001"/>
</g>
</g>
</svg>
