<?xml version="1.0" encoding="UTF-8" standalone="no"?>
<!DOCTYPE svg PUBLIC "-//W3C//DTD SVG 1.1//EN"
 "http://www.w3.org/Graphics/SVG/1.1/DTD/svg11.dtd">
<!-- Generated by graphviz version 2.40.1 (20161225.0304)
 -->
<!-- Title: dependencies Pages: 1 -->
<svg width="1245pt" height="211pt"
 viewBox="0.00 0.00 1245.00 211.00" xmlns="http://www.w3.org/2000/svg" xmlns:xlink="http://www.w3.org/1999/xlink">
<g id="graph0" class="graph" transform="scale(1 1) rotate(0) translate(4 207)">
<title>dependencies</title>
<polygon fill="#ffffff" stroke="transparent" points="-4,4 -4,-207 1241,-207 1241,4 -4,4"/>
<text text-anchor="start" x="597.5091" y="-42.4" font-family="sans-serif" font-weight="bold" font-size="14.00" fill="#000000">Legend</text>
<polygon fill="#ffffb3" stroke="transparent" points="384.5,-10 384.5,-30 404.5,-30 404.5,-10 384.5,-10"/>
<text text-anchor="start" x="408.129" y="-15.4" font-family="sans-serif" font-size="14.00" fill="#000000"> &#160;Declarations</text>
<polygon fill="#8dd3c7" stroke="transparent" points="497.5,-10 497.5,-30 517.5,-30 517.5,-10 497.5,-10"/>
<text text-anchor="start" x="521.2251" y="-15.4" font-family="sans-serif" font-size="14.00" fill="#000000"> &#160;Module</text>
<polygon fill="#80b1d3" stroke="transparent" points="583.5,-10 583.5,-30 603.5,-30 603.5,-10 583.5,-10"/>
<text text-anchor="start" x="607.2812" y="-15.4" font-family="sans-serif" font-size="14.00" fill="#000000"> &#160;Bootstrap</text>
<polygon fill="#fdb462" stroke="transparent" points="680.5,-10 680.5,-30 700.5,-30 700.5,-10 680.5,-10"/>
<text text-anchor="start" x="704.1732" y="-15.4" font-family="sans-serif" font-size="14.00" fill="#000000"> &#160;Providers</text>
<polygon fill="#fb8072" stroke="transparent" points="776.5,-10 776.5,-30 796.5,-30 796.5,-10 776.5,-10"/>
<text text-anchor="start" x="800.2258" y="-15.4" font-family="sans-serif" font-size="14.00" fill="#000000"> &#160;Exports</text>
<g id="clust1" class="cluster">
<title>cluster_ComponentsModule</title>
<polygon fill="none" stroke="#000000" stroke-dasharray="1,5" points="8,-70 8,-195 1229,-195 1229,-70 8,-70"/>
</g>
<g id="clust2" class="cluster">
<title>cluster_ComponentsModule_declarations</title>
<polygon fill="none" stroke="#000000" points="146,-78 146,-130 1221,-130 1221,-78 146,-78"/>
</g>
<g id="clust10" class="cluster">
<title>cluster_ComponentsModule_imports</title>
<polygon fill="none" stroke="#000000" points="16,-78 16,-130 138,-130 138,-78 16,-78"/>
</g>
<!-- ButtonsComponent -->
<g id="node1" class="node">
<title>ButtonsComponent</title>
<polygon fill="#ffffb3" stroke="#000000" points="1213.3948,-122 1088.6052,-122 1088.6052,-86 1213.3948,-86 1213.3948,-122"/>
<text text-anchor="middle" x="1151" y="-99.8" font-family="Times,serif" font-size="14.00" fill="#000000">ButtonsComponent</text>
</g>
<!-- ComponentsModule -->
<g id="node8" class="node">
<title>ComponentsModule</title>
<polygon fill="#8dd3c7" stroke="#000000" points="685.3272,-187 682.3272,-191 661.3272,-191 658.3272,-187 554.6728,-187 554.6728,-151 685.3272,-151 685.3272,-187"/>
<text text-anchor="middle" x="620" y="-164.8" font-family="Times,serif" font-size="14.00" fill="#000000">ComponentsModule</text>
</g>
<!-- ButtonsComponent&#45;&gt;ComponentsModule -->
<g id="edge1" class="edge">
<title>ButtonsComponent&#45;&gt;ComponentsModule</title>
<path fill="none" stroke="#000000" d="M1151,-122.2921C1151,-144.2057 1151,-178 1151,-178 1151,-178 695.3771,-178 695.3771,-178"/>
<polygon fill="#000000" stroke="#000000" points="695.3771,-174.5001 685.3771,-178 695.3771,-181.5001 695.3771,-174.5001"/>
</g>
<!-- GridSystemComponent -->
<g id="node2" class="node">
<title>GridSystemComponent</title>
<polygon fill="#ffffb3" stroke="#000000" points="1070.2134,-122 921.7866,-122 921.7866,-86 1070.2134,-86 1070.2134,-122"/>
<text text-anchor="middle" x="996" y="-99.8" font-family="Times,serif" font-size="14.00" fill="#000000">GridSystemComponent</text>
</g>
<!-- GridSystemComponent&#45;&gt;ComponentsModule -->
<g id="edge2" class="edge">
<title>GridSystemComponent&#45;&gt;ComponentsModule</title>
<path fill="none" stroke="#000000" d="M996,-122.1061C996,-141.3391 996,-169 996,-169 996,-169 695.4942,-169 695.4942,-169"/>
<polygon fill="#000000" stroke="#000000" points="695.4942,-165.5001 685.4942,-169 695.4942,-172.5001 695.4942,-165.5001"/>
</g>
<!-- IconsComponent -->
<g id="node3" class="node">
<title>IconsComponent</title>
<polygon fill="#ffffb3" stroke="#000000" points="903.6527,-122 792.3473,-122 792.3473,-86 903.6527,-86 903.6527,-122"/>
<text text-anchor="middle" x="848" y="-99.8" font-family="Times,serif" font-size="14.00" fill="#000000">IconsComponent</text>
</g>
<!-- IconsComponent&#45;&gt;ComponentsModule -->
<g id="edge3" class="edge">
<title>IconsComponent&#45;&gt;ComponentsModule</title>
<path fill="none" stroke="#000000" d="M848,-122.027C848,-138.3976 848,-160 848,-160 848,-160 695.3356,-160 695.3356,-160"/>
<polygon fill="#000000" stroke="#000000" points="695.3357,-156.5001 685.3356,-160 695.3356,-163.5001 695.3357,-156.5001"/>
</g>
<!-- NotificationsComponent -->
<g id="node4" class="node">
<title>NotificationsComponent</title>
<polygon fill="#ffffb3" stroke="#000000" points="774.427,-122 619.573,-122 619.573,-86 774.427,-86 774.427,-122"/>
<text text-anchor="middle" x="697" y="-99.8" font-family="Times,serif" font-size="14.00" fill="#000000">NotificationsComponent</text>
</g>
<!-- NotificationsComponent&#45;&gt;ComponentsModule -->
<g id="edge4" class="edge">
<title>NotificationsComponent&#45;&gt;ComponentsModule</title>
<path fill="none" stroke="#000000" d="M652.4751,-122.1061C652.4751,-122.1061 652.4751,-140.991 652.4751,-140.991"/>
<polygon fill="#000000" stroke="#000000" points="648.9752,-140.9909 652.4751,-150.991 655.9752,-140.991 648.9752,-140.9909"/>
</g>
<!-- PanelsComponent -->
<g id="node5" class="node">
<title>PanelsComponent</title>
<polygon fill="#ffffb3" stroke="#000000" points="601.8795,-122 484.1205,-122 484.1205,-86 601.8795,-86 601.8795,-122"/>
<text text-anchor="middle" x="543" y="-99.8" font-family="Times,serif" font-size="14.00" fill="#000000">PanelsComponent</text>
</g>
<!-- PanelsComponent&#45;&gt;ComponentsModule -->
<g id="edge5" class="edge">
<title>PanelsComponent&#45;&gt;ComponentsModule</title>
<path fill="none" stroke="#000000" d="M578.3882,-122.1061C578.3882,-122.1061 578.3882,-140.991 578.3882,-140.991"/>
<polygon fill="#000000" stroke="#000000" points="574.8882,-140.9909 578.3882,-150.991 581.8882,-140.991 574.8882,-140.9909"/>
</g>
<!-- SweetAlertComponent -->
<g id="node6" class="node">
<title>SweetAlertComponent</title>
<polygon fill="#ffffb3" stroke="#000000" points="466.3047,-122 321.6953,-122 321.6953,-86 466.3047,-86 466.3047,-122"/>
<text text-anchor="middle" x="394" y="-99.8" font-family="Times,serif" font-size="14.00" fill="#000000">SweetAlertComponent</text>
</g>
<!-- SweetAlertComponent&#45;&gt;ComponentsModule -->
<g id="edge6" class="edge">
<title>SweetAlertComponent&#45;&gt;ComponentsModule</title>
<path fill="none" stroke="#000000" d="M394,-122.027C394,-138.3976 394,-160 394,-160 394,-160 544.6314,-160 544.6314,-160"/>
<polygon fill="#000000" stroke="#000000" points="544.6315,-163.5001 554.6314,-160 544.6314,-156.5001 544.6315,-163.5001"/>
</g>
<!-- TypographyComponent -->
<g id="node7" class="node">
<title>TypographyComponent</title>
<polygon fill="#ffffb3" stroke="#000000" points="303.7604,-122 154.2396,-122 154.2396,-86 303.7604,-86 303.7604,-122"/>
<text text-anchor="middle" x="229" y="-99.8" font-family="Times,serif" font-size="14.00" fill="#000000">TypographyComponent</text>
</g>
<!-- TypographyComponent&#45;&gt;ComponentsModule -->
<g id="edge7" class="edge">
<title>TypographyComponent&#45;&gt;ComponentsModule</title>
<path fill="none" stroke="#000000" d="M229,-122.1061C229,-141.3391 229,-169 229,-169 229,-169 544.5554,-169 544.5554,-169"/>
<polygon fill="#000000" stroke="#000000" points="544.5554,-172.5001 554.5554,-169 544.5554,-165.5001 544.5554,-172.5001"/>
</g>
<!-- MaterialModule -->
<g id="node9" class="node">
<title>MaterialModule</title>
<polygon fill="#8dd3c7" stroke="#000000" points="130.4706,-122 127.4706,-126 106.4706,-126 103.4706,-122 23.5294,-122 23.5294,-86 130.4706,-86 130.4706,-122"/>
<text text-anchor="middle" x="77" y="-99.8" font-family="Times,serif" font-size="14.00" fill="#000000">MaterialModule</text>
</g>
<!-- MaterialModule&#45;&gt;ComponentsModule -->
<g id="edge8" class="edge">
<title>MaterialModule&#45;&gt;ComponentsModule</title>
<path fill="none" stroke="#000000" d="M77,-122.2921C77,-144.2057 77,-178 77,-178 77,-178 544.7714,-178 544.7714,-178"/>
<polygon fill="#000000" stroke="#000000" points="544.7714,-181.5001 554.7714,-178 544.7714,-174.5001 544.7714,-181.5001"/>
</g>
</g>
</svg>
