<?xml version="1.0" encoding="UTF-8" standalone="no"?>
<!DOCTYPE svg PUBLIC "-//W3C//DTD SVG 1.1//EN"
 "http://www.w3.org/Graphics/SVG/1.1/DTD/svg11.dtd">
<!-- Generated by graphviz version 2.40.1 (20161225.0304)
 -->
<!-- Title: dependencies Pages: 1 -->
<svg width="568pt" height="211pt"
 viewBox="0.00 0.00 568.00 211.00" xmlns="http://www.w3.org/2000/svg" xmlns:xlink="http://www.w3.org/1999/xlink">
<g id="graph0" class="graph" transform="scale(1 1) rotate(0) translate(4 207)">
<title>dependencies</title>
<polygon fill="#ffffff" stroke="transparent" points="-4,4 -4,-207 564,-207 564,4 -4,4"/>
<text text-anchor="start" x="259.0091" y="-42.4" font-family="sans-serif" font-weight="bold" font-size="14.00" fill="#000000">Legend</text>
<polygon fill="#ffffb3" stroke="transparent" points="46,-10 46,-30 66,-30 66,-10 46,-10"/>
<text text-anchor="start" x="69.629" y="-15.4" font-family="sans-serif" font-size="14.00" fill="#000000"> &#160;Declarations</text>
<polygon fill="#8dd3c7" stroke="transparent" points="159,-10 159,-30 179,-30 179,-10 159,-10"/>
<text text-anchor="start" x="182.7251" y="-15.4" font-family="sans-serif" font-size="14.00" fill="#000000"> &#160;Module</text>
<polygon fill="#80b1d3" stroke="transparent" points="245,-10 245,-30 265,-30 265,-10 245,-10"/>
<text text-anchor="start" x="268.7812" y="-15.4" font-family="sans-serif" font-size="14.00" fill="#000000"> &#160;Bootstrap</text>
<polygon fill="#fdb462" stroke="transparent" points="342,-10 342,-30 362,-30 362,-10 342,-10"/>
<text text-anchor="start" x="365.6732" y="-15.4" font-family="sans-serif" font-size="14.00" fill="#000000"> &#160;Providers</text>
<polygon fill="#fb8072" stroke="transparent" points="438,-10 438,-30 458,-30 458,-10 438,-10"/>
<text text-anchor="start" x="461.7258" y="-15.4" font-family="sans-serif" font-size="14.00" fill="#000000"> &#160;Exports</text>
<g id="clust1" class="cluster">
<title>cluster_PagesModule</title>
<polygon fill="none" stroke="#000000" stroke-dasharray="1,5" points="8,-70 8,-195 552,-195 552,-70 8,-70"/>
</g>
<g id="clust2" class="cluster">
<title>cluster_PagesModule_declarations</title>
<polygon fill="none" stroke="#000000" points="146,-78 146,-130 544,-130 544,-78 146,-78"/>
</g>
<g id="clust6" class="cluster">
<title>cluster_PagesModule_imports</title>
<polygon fill="none" stroke="#000000" points="16,-78 16,-130 138,-130 138,-78 16,-78"/>
</g>
<!-- LockComponent -->
<g id="node1" class="node">
<title>LockComponent</title>
<polygon fill="#ffffb3" stroke="#000000" points="536.0996,-122 425.9004,-122 425.9004,-86 536.0996,-86 536.0996,-122"/>
<text text-anchor="middle" x="481" y="-99.8" font-family="Times,serif" font-size="14.00" fill="#000000">LockComponent</text>
</g>
<!-- PagesModule -->
<g id="node4" class="node">
<title>PagesModule</title>
<polygon fill="#8dd3c7" stroke="#000000" points="329.2064,-187 326.2064,-191 305.2064,-191 302.2064,-187 236.7936,-187 236.7936,-151 329.2064,-151 329.2064,-187"/>
<text text-anchor="middle" x="283" y="-164.8" font-family="Times,serif" font-size="14.00" fill="#000000">PagesModule</text>
</g>
<!-- LockComponent&#45;&gt;PagesModule -->
<g id="edge1" class="edge">
<title>LockComponent&#45;&gt;PagesModule</title>
<path fill="none" stroke="#000000" d="M481,-122.1061C481,-141.3391 481,-169 481,-169 481,-169 339.1723,-169 339.1723,-169"/>
<polygon fill="#000000" stroke="#000000" points="339.1724,-165.5001 329.1723,-169 339.1723,-172.5001 339.1724,-165.5001"/>
</g>
<!-- LoginComponent -->
<g id="node2" class="node">
<title>LoginComponent</title>
<polygon fill="#ffffb3" stroke="#000000" points="408.2758,-122 293.7242,-122 293.7242,-86 408.2758,-86 408.2758,-122"/>
<text text-anchor="middle" x="351" y="-99.8" font-family="Times,serif" font-size="14.00" fill="#000000">LoginComponent</text>
</g>
<!-- LoginComponent&#45;&gt;PagesModule -->
<g id="edge2" class="edge">
<title>LoginComponent&#45;&gt;PagesModule</title>
<path fill="none" stroke="#000000" d="M311.3577,-122.1061C311.3577,-122.1061 311.3577,-140.991 311.3577,-140.991"/>
<polygon fill="#000000" stroke="#000000" points="307.8577,-140.9909 311.3577,-150.991 314.8577,-140.991 307.8577,-140.9909"/>
</g>
<!-- PricingComponent -->
<g id="node3" class="node">
<title>PricingComponent</title>
<polygon fill="#ffffb3" stroke="#000000" points="275.7716,-122 154.2284,-122 154.2284,-86 275.7716,-86 275.7716,-122"/>
<text text-anchor="middle" x="215" y="-99.8" font-family="Times,serif" font-size="14.00" fill="#000000">PricingComponent</text>
</g>
<!-- PricingComponent&#45;&gt;PagesModule -->
<g id="edge3" class="edge">
<title>PricingComponent&#45;&gt;PagesModule</title>
<path fill="none" stroke="#000000" d="M256.3913,-122.1061C256.3913,-122.1061 256.3913,-140.991 256.3913,-140.991"/>
<polygon fill="#000000" stroke="#000000" points="252.8914,-140.9909 256.3913,-150.991 259.8914,-140.991 252.8914,-140.9909"/>
</g>
<!-- MaterialModule -->
<g id="node5" class="node">
<title>MaterialModule</title>
<polygon fill="#8dd3c7" stroke="#000000" points="130.4706,-122 127.4706,-126 106.4706,-126 103.4706,-122 23.5294,-122 23.5294,-86 130.4706,-86 130.4706,-122"/>
<text text-anchor="middle" x="77" y="-99.8" font-family="Times,serif" font-size="14.00" fill="#000000">MaterialModule</text>
</g>
<!-- MaterialModule&#45;&gt;PagesModule -->
<g id="edge4" class="edge">
<title>MaterialModule&#45;&gt;PagesModule</title>
<path fill="none" stroke="#000000" d="M77,-122.1061C77,-141.3391 77,-169 77,-169 77,-169 226.7696,-169 226.7696,-169"/>
<polygon fill="#000000" stroke="#000000" points="226.7696,-172.5001 236.7696,-169 226.7695,-165.5001 226.7696,-172.5001"/>
</g>
</g>
</svg>
